# xmcd
#
# Track frame offsets:
#	150
#	13943
#	28550
#	43913
#	55703
#	73710
#	90765
#	107408
#	124378
#	142013
#	156473
#	172355
#	186470
#	203133
#	217185
#
# Disc length: 3107 seconds
#
# Revision: 1
# Processed by: cddbd v1.5.1PL0 Copyright (c) Steve Scherf et al.
# Submitted via: CDex 1.50Beta5
#
DISCID=e60c210f
DTITLE=石原裕次郎 - 石原裕次郎 16
DYEAR=1900
DGENRE=
TTITLE0=慕情のひと
TTITLE1=粋な別れ
TTITLE2=夜霧よ今夜も有難う
TTITLE3=俺は待ってるぜ
TTITLE4=二人の世界
TTITLE5=夕日の丘
TTITLE6=慕情の人
TTITLE7=春を惜しむ歌
TTITLE8=雪の船宿
TTITLE9=粉雪の詩
TTITLE10=面影
TTITLE11=人生寮歌
TTITLE12=ふるさとに道あり
TTITLE13=ながれ船小唄
TTITLE14=無常の唄
EXTD=
EXTT0=
EXTT1=
EXTT2=
EXTT3=
EXTT4=
EXTT5=
EXTT6=
EXTT7=
EXTT8=
EXTT9=
EXTT10=
EXTT11=
EXTT12=
EXTT13=
EXTT14=
PLAYORDER=
